<?xml version="1.0" encoding="UTF-8" standalone="no"?>
<!-- Created with Inkscape (http://www.inkscape.org/) -->

<svg
   xmlns:dc="http://purl.org/dc/elements/1.1/"
   xmlns:cc="http://creativecommons.org/ns#"
   xmlns:rdf="http://www.w3.org/1999/02/22-rdf-syntax-ns#"
   xmlns:svg="http://www.w3.org/2000/svg"
   xmlns="http://www.w3.org/2000/svg"
   xmlns:sodipodi="http://sodipodi.sourceforge.net/DTD/sodipodi-0.dtd"
   xmlns:inkscape="http://www.inkscape.org/namespaces/inkscape"
   width="140"
   height="22"
   id="svg2"
   version="1.1"
   inkscape:version="0.48.4 r9939"
   sodipodi:docname="chronotope.svg">
  <defs
     id="defs4" />
  <sodipodi:namedview
     id="base"
     pagecolor="#ffffff"
     bordercolor="#666666"
     borderopacity="1.0"
     inkscape:pageopacity="0.0"
     inkscape:pageshadow="2"
     inkscape:zoom="1.979899"
     inkscape:cx="140.80647"
     inkscape:cy="2.6456481"
     inkscape:document-units="px"
     inkscape:current-layer="layer1"
     showgrid="false"
     showguides="true"
     inkscape:guide-bbox="true"
     inkscape:window-width="1551"
     inkscape:window-height="876"
     inkscape:window-x="49"
     inkscape:window-y="24"
     inkscape:window-maximized="1"
     fit-margin-top="0"
     fit-margin-left="0"
     fit-margin-right="0"
     fit-margin-bottom="0" />
  <metadata
     id="metadata7">
    <rdf:RDF>
      <cc:Work
         rdf:about="">
        <dc:format>image/svg+xml</dc:format>
        <dc:type
           rdf:resource="http://purl.org/dc/dcmitype/StillImage" />
        <dc:title></dc:title>
      </cc:Work>
    </rdf:RDF>
  </metadata>
  <g
     inkscape:label="Ebene 1"
     inkscape:groupmode="layer"
     id="layer1"
     transform="translate(-133.3263,-386.61361)">
    <g
       id="g5836"
       style="fill:#ffffff"
       transform="matrix(0.46987962,0,0,0.46987962,71.860811,215.78973)">
      <path
         d="m 190.5059,392.30149 c -2.56188,3.41585 -4.94399,4.7642 -8.40477,4.7642 -5.52827,0 -9.88797,-4.35969 -9.88797,-9.79807 0,-5.52827 4.2698,-9.84303 9.75313,-9.84303 3.64056,0 6.65191,1.75288 8.53961,4.98893 l 3.73046,0 c -1.97759,-4.94397 -6.69686,-8.04521 -12.22512,-8.04521 -7.37103,0 -13.16898,5.66312 -13.16898,12.80942 0,7.32608 5.84289,12.94425 13.3937,12.94425 3.05627,0 5.88784,-0.9888 8.18005,-2.78661 1.57309,-1.25846 2.51694,-2.472 3.8653,-5.03388 l -3.77541,0"
         style="font-size:40px;font-style:normal;font-variant:normal;font-stretch:normal;line-height:125%;letter-spacing:0px;word-spacing:0px;fill:#ffffff;fill-opacity:1;stroke:none;font-family:URW Gothic L;-inkscape-font-specification:URW Gothic L Book"
         id="path5747"
         inkscape:connector-curvature="0" />
      <path
         d="m 198.84255,399.53769 3.32595,0 0,-13.4836 c 0,-2.65176 0.35957,-4.22486 1.34836,-5.57322 1.34836,-1.93263 3.64057,-3.05628 6.15751,-3.05628 2.3821,0 4.62937,1.03376 5.93278,2.69672 1.16858,1.43825 1.66298,3.32597 1.66298,6.20246 l 0,13.21392 3.32595,0 0,-13.21392 c 0,-3.68551 -0.67418,-6.20246 -2.11243,-8.13511 -1.84276,-2.42703 -4.94398,-3.82035 -8.49466,-3.82035 -3.37089,0 -6.15751,1.34837 -7.82049,3.77541 l 0,-11.82062 -3.32595,0 0,33.21459"
         style="font-size:40px;font-style:normal;font-variant:normal;font-stretch:normal;line-height:125%;letter-spacing:0px;word-spacing:0px;fill:#ffffff;fill-opacity:1;stroke:none;font-family:URW Gothic L;-inkscape-font-specification:URW Gothic L Book"
         id="path5749"
         inkscape:connector-curvature="0" />
      <path
         d="m 226.2311,399.53769 3.32595,0 0,-14.33756 c 0,-4.58441 2.33717,-7.10136 6.96653,-7.55081 l 0,-3.28101 c -3.55067,0.17978 -5.66311,1.39332 -6.96653,4.09003 l 0,-3.50574 -3.32595,0 0,24.58509"
         style="font-size:40px;font-style:normal;font-variant:normal;font-stretch:normal;line-height:125%;letter-spacing:0px;word-spacing:0px;fill:#ffffff;fill-opacity:1;stroke:none;font-family:URW Gothic L;-inkscape-font-specification:URW Gothic L Book"
         id="path5751"
         inkscape:connector-curvature="0" />
      <path
         d="m 251.70526,374.36831 c -7.28113,0 -12.89931,5.52829 -12.89931,12.71953 0,7.55081 5.52829,13.03414 13.16898,13.03414 7.19125,0 12.4948,-5.43839 12.4948,-12.80942 0,-7.50585 -5.39344,-12.94425 -12.76447,-12.94425 m 0,3.05628 c 5.39344,0 9.39357,4.22487 9.39357,9.93292 0,5.61816 -3.8653,9.70818 -9.21379,9.70818 -5.6631,0 -9.70819,-4.13496 -9.70819,-9.88796 0,-5.57321 4.09004,-9.75314 9.52841,-9.75314"
         style="font-size:40px;font-style:normal;font-variant:normal;font-stretch:normal;line-height:125%;letter-spacing:0px;word-spacing:0px;fill:#ffffff;fill-opacity:1;stroke:none;font-family:URW Gothic L;-inkscape-font-specification:URW Gothic L Book"
         id="path5753"
         inkscape:connector-curvature="0" />
      <path
         d="m 269.15739,399.53769 3.32595,0 0,-13.52854 c 0,-2.74165 0.35956,-4.17992 1.30342,-5.57322 1.30341,-1.88769 3.59562,-3.01134 6.20245,-3.01134 2.42705,0 4.62937,0.98881 5.97773,2.65178 1.16857,1.52814 1.61803,3.32596 1.61803,6.56201 l 0,12.89931 3.32595,0 0,-12.89931 c 0,-4.13495 -0.58429,-6.33729 -2.15738,-8.44972 -1.93264,-2.42703 -4.89905,-3.82035 -8.35982,-3.82035 -3.23607,0 -5.84289,1.25848 -7.91038,3.77541 l 0,-3.19112 -3.32595,0 0,24.58509"
         style="font-size:40px;font-style:normal;font-variant:normal;font-stretch:normal;line-height:125%;letter-spacing:0px;word-spacing:0px;fill:#ffffff;fill-opacity:1;stroke:none;font-family:URW Gothic L;-inkscape-font-specification:URW Gothic L Book"
         id="path5755"
         inkscape:connector-curvature="0" />
      <path
         d="m 308.50139,374.36831 c -7.28114,0 -12.8993,5.52829 -12.8993,12.71953 0,7.55081 5.52827,13.03414 13.16897,13.03414 7.19124,0 12.4948,-5.43839 12.4948,-12.80942 0,-7.50585 -5.39345,-12.94425 -12.76447,-12.94425 m 0,3.05628 c 5.39343,0 9.39357,4.22487 9.39357,9.93292 0,5.61816 -3.86531,9.70818 -9.21379,9.70818 -5.66311,0 -9.70818,-4.13496 -9.70818,-9.88796 0,-5.57321 4.09002,-9.75314 9.5284,-9.75314"
         style="font-size:40px;font-style:normal;font-variant:normal;font-stretch:normal;line-height:125%;letter-spacing:0px;word-spacing:0px;fill:#ffffff;fill-opacity:1;stroke:none;font-family:URW Gothic L;-inkscape-font-specification:URW Gothic L Book"
         id="path5757"
         inkscape:connector-curvature="0" />
      <path
         d="m 328.96485,399.53769 3.32595,0 0,-21.57375 5.52827,0 0,-3.01134 -5.52827,0 0,-8.6295 -3.32595,0 0,8.6295 -5.30355,0 0,3.01134 5.30355,0 0,21.57375"
         style="font-size:40px;font-style:normal;font-variant:normal;font-stretch:normal;line-height:125%;letter-spacing:0px;word-spacing:0px;fill:#ffffff;fill-opacity:1;stroke:none;font-family:URW Gothic L;-inkscape-font-specification:URW Gothic L Book"
         id="path5759"
         inkscape:connector-curvature="0" />
      <path
         d="m 353.18335,374.36831 c -7.28113,0 -12.89931,5.52829 -12.89931,12.71953 0,7.55081 5.52829,13.03414 13.16898,13.03414 7.19125,0 12.49479,-5.43839 12.49479,-12.80942 0,-7.50585 -5.39343,-12.94425 -12.76446,-12.94425 m 0,3.05628 c 5.39343,0 9.39357,4.22487 9.39357,9.93292 0,5.61816 -3.8653,9.70818 -9.21379,9.70818 -5.6631,0 -9.70819,-4.13496 -9.70819,-9.88796 0,-5.57321 4.09003,-9.75314 9.52841,-9.75314"
         style="font-size:40px;font-style:normal;font-variant:normal;font-stretch:normal;line-height:125%;letter-spacing:0px;word-spacing:0px;fill:#ffffff;fill-opacity:1;stroke:none;font-family:URW Gothic L;-inkscape-font-specification:URW Gothic L Book"
         id="path5761"
         inkscape:connector-curvature="0" />
      <path
         d="m 370.63548,374.9526 0,33.21459 3.32595,0 0,-12.85436 c 2.15737,3.14617 5.48333,4.80915 9.57335,4.80915 7.32608,0 13.03414,-5.61817 13.03414,-12.80942 0,-7.32607 -5.61817,-12.94425 -12.94425,-12.94425 -4.17991,0 -7.59576,1.70794 -9.66324,4.80915 l 0,-4.22486 -3.32595,0 m 12.85436,2.47199 c 5.52826,0 9.70818,4.22487 9.70818,9.88797 0,5.52828 -4.17992,9.75313 -9.66324,9.75313 -5.61816,0 -9.79808,-4.2698 -9.79808,-9.93291 0,-5.43837 4.31475,-9.70819 9.75314,-9.70819"
         style="font-size:40px;font-style:normal;font-variant:normal;font-stretch:normal;line-height:125%;letter-spacing:0px;word-spacing:0px;fill:#ffffff;fill-opacity:1;stroke:none;font-family:URW Gothic L;-inkscape-font-specification:URW Gothic L Book"
         id="path5763"
         inkscape:connector-curvature="0" />
      <path
         d="m 425.90205,388.3463 c 0,-3.37088 -0.44945,-5.43838 -1.66297,-7.59575 -2.20232,-3.91023 -6.47213,-6.38224 -11.14644,-6.38224 -7.1463,0 -12.76447,5.61818 -12.76447,12.76447 0,7.28114 5.70807,12.9892 12.98919,12.9892 3.14618,0 6.11257,-1.16858 8.35983,-3.28101 1.75287,-1.66297 2.92145,-3.3709 3.59563,-5.39344 l -3.46079,0 c -1.39331,3.3709 -4.8541,5.61816 -8.58456,5.61816 -5.03386,0 -9.30368,-3.86529 -9.57335,-8.71939 l 22.24793,0 m -22.15804,-3.01133 c 0.89891,-4.71925 4.62938,-7.91038 9.30368,-7.91038 4.76421,0 8.40478,3.01135 9.52841,7.91038 l -18.83209,0"
         style="font-size:40px;font-style:normal;font-variant:normal;font-stretch:normal;line-height:125%;letter-spacing:0px;word-spacing:0px;fill:#ffffff;fill-opacity:1;stroke:none;font-family:URW Gothic L;-inkscape-font-specification:URW Gothic L Book"
         id="path5765"
         inkscape:connector-curvature="0" />
      <path
         inkscape:connector-curvature="0"
         id="path118"
         d="m 144.25406,385.33314 -6.32455,-7.20297 c 0,0 5.79751,-5.62183 9.13548,-8.95978 3.865,-3.86503 10.54093,-3.68933 13.00047,-0.70275 2.10819,2.45957 1.58115,6.85161 -2.28386,9.48685 -5.62182,3.865 -7.37865,2.45955 -13.52754,7.37865 z m 6.67593,1.9325 c -5.44614,4.04071 -5.9732,6.85161 -11.41934,10.36525 l 4.56773,8.25708 c 5.27047,-2.81093 7.20297,-3.51365 11.41934,-5.62183 5.09478,-2.28389 7.02729,-8.60843 5.09478,-12.12208 -1.58114,-2.63524 -5.97318,-3.68932 -9.66251,-0.87842 z m -9.13547,-0.17568 -5.79752,-6.67592 c 0,0 -4.04068,4.0407 -1.22978,7.20298 2.98661,2.63522 7.0273,-0.52706 7.0273,-0.52706 z m -7.55434,18.62231 c 1.9325,3.68933 7.02729,1.40547 7.02729,1.40547 l -4.39206,-7.73002 c 0.17568,0 -4.21637,2.63523 -2.63523,6.32455 z"
         style="fill:#ffffff" />
    </g>
  </g>
</svg>
