<?xml version="1.0" encoding="UTF-8" standalone="no"?>
<svg
   xmlns:dc="http://purl.org/dc/elements/1.1/"
   xmlns:cc="http://creativecommons.org/ns#"
   xmlns:rdf="http://www.w3.org/1999/02/22-rdf-syntax-ns#"
   xmlns:svg="http://www.w3.org/2000/svg"
   xmlns="http://www.w3.org/2000/svg"
   xmlns:sodipodi="http://sodipodi.sourceforge.net/DTD/sodipodi-0.dtd"
   xmlns:inkscape="http://www.inkscape.org/namespaces/inkscape"
   version="1.2"
   id="Ebene_1"
   x="0px"
   y="0px"
   width="305px"
   height="42px"
   viewBox="0 0 305 42"
   overflow="inherit"
   xml:space="preserve"
   inkscape:version="0.48.4 r9939"
   sodipodi:docname="eigenzeiten-klein.svg"><metadata
     id="metadata33"><rdf:RDF><cc:Work
         rdf:about=""><dc:format>image/svg+xml</dc:format><dc:type
           rdf:resource="http://purl.org/dc/dcmitype/StillImage" /><dc:title></dc:title></cc:Work></rdf:RDF></metadata><defs
     id="defs31" /><sodipodi:namedview
     pagecolor="#ffffff"
     bordercolor="#666666"
     borderopacity="1"
     objecttolerance="10"
     gridtolerance="10"
     guidetolerance="10"
     inkscape:pageopacity="0"
     inkscape:pageshadow="2"
     inkscape:window-width="640"
     inkscape:window-height="480"
     id="namedview29"
     showgrid="false"
     inkscape:zoom="1.052459"
     inkscape:cx="152.5"
     inkscape:cy="21"
     inkscape:window-x="340"
     inkscape:window-y="84"
     inkscape:window-maximized="0"
     inkscape:current-layer="Ebene_1" /><g
     id="g3"
     style="fill:#000000"><g
       id="g5"
       style="fill:#000000"><path
         fill="#FFFFFF"
         d="M286.216,35.945c0,1.695-0.269,2.202-2.263,2.262v1.012h6.431v-1.012c-1.995-0.06-2.263-0.566-2.263-2.262    v-4.229c0-2.648-0.209-4.375-0.357-5.477h0.148c0.298,0.744,0.834,2.054,2.411,4.346l5.895,8.633h2.024V26.538    c0-1.697,0.269-2.203,2.262-2.263v-1.041h-6.43v1.041c1.995,0.06,2.262,0.565,2.262,2.263v3.065c0,3.603,0.299,5.627,0.358,6.162    h-0.179c-0.269-0.685-0.744-1.815-1.875-3.542l-5.954-8.989h-4.733v1.041c1.994,0.06,2.263,0.565,2.263,2.263V35.945z     M265.26,39.219h12.442v-4.852h-1.339c-0.239,3.006-0.804,3.453-3.096,3.453h-3.007v-6.104h1.161c1.846,0,2.054,0.209,2.173,1.816    h1.221v-4.941h-1.221c-0.119,1.697-0.357,1.816-2.203,1.816h-1.131v-5.806h3.096c1.727,0,2.114,0.269,2.858,2.799h1.25    l-0.299-4.167H265.26v1.041c1.994,0.06,2.262,0.565,2.262,2.263v9.407c0,1.695-0.268,2.202-2.262,2.262V39.219z M251.388,35.945    c0,1.695-0.269,2.202-2.263,2.262v1.012h7.264v-1.012c-1.994-0.06-2.263-0.566-2.263-2.262V24.603h1.638    c1.667,0,2.173,0.774,2.649,3.305h1.339l-0.237-4.673h-13.932v4.673h1.34c0.237-2.441,0.595-3.305,2.59-3.305h1.875V35.945z     M237.813,26.538c0-1.697,0.268-2.203,2.263-2.263v-1.041h-7.264v1.041c1.995,0.06,2.263,0.565,2.263,2.263v9.407    c0,1.695-0.268,2.202-2.263,2.262v1.012h7.264v-1.012c-1.995-0.06-2.263-0.566-2.263-2.262V26.538z M214.118,39.219h12.443v-4.852    h-1.339c-0.238,3.006-0.805,3.453-3.097,3.453h-3.007v-6.104h1.161c1.846,0,2.054,0.209,2.173,1.816h1.222v-4.941h-1.222    c-0.119,1.697-0.356,1.816-2.202,1.816h-1.132v-5.806h3.097c1.727,0,2.113,0.269,2.857,2.799h1.25l-0.297-4.167h-11.908v1.041    c1.995,0.06,2.264,0.565,2.264,2.263v9.407c0,1.695-0.269,2.202-2.264,2.262V39.219z M207.867,34.664h-1.279    c-0.565,2.561-0.863,3.126-3.661,3.126h-4.376l9.287-12.979v-1.576h-11.521l-0.327,4.315h1.28    c0.327-2.232,1.101-2.917,3.125-2.917h4.555l-9.288,13.127v1.459h11.818L207.867,34.664z M175.867,35.945    c0,1.695-0.268,2.202-2.262,2.262v1.012h6.43v-1.012c-1.995-0.06-2.263-0.566-2.263-2.262v-4.229c0-2.648-0.208-4.375-0.357-5.477    h0.149c0.297,0.744,0.833,2.054,2.411,4.346l5.894,8.633h2.024V26.538c0-1.697,0.268-2.203,2.263-2.263v-1.041h-6.43v1.041    c1.994,0.06,2.262,0.565,2.262,2.263v3.065c0,3.603,0.298,5.627,0.357,6.162h-0.179c-0.268-0.685-0.743-1.815-1.876-3.542    l-5.952-8.989h-4.733v1.041c1.994,0.06,2.262,0.565,2.262,2.263V35.945z M154.911,39.219h12.443v-4.852h-1.34    c-0.238,3.006-0.805,3.453-3.097,3.453h-3.006v-6.104h1.161c1.845,0,2.054,0.209,2.173,1.816h1.221v-4.941h-1.221    c-0.119,1.697-0.356,1.816-2.203,1.816h-1.131v-5.806h3.097c1.726,0,2.112,0.269,2.856,2.799h1.251l-0.298-4.167h-11.907v1.041    c1.994,0.06,2.263,0.565,2.263,2.263v9.407c0,1.695-0.269,2.202-2.263,2.262V39.219z M144.76,37.492    c-0.684,0.447-1.458,0.715-2.768,0.715c-4.049,0-5.061-2.947-5.061-7.234c0-4.167,1.518-6.697,4.823-6.697    c2.53,0,3.423,1.132,3.78,3.274h1.876v-3.334c-0.983-0.595-2.739-1.31-5.299-1.31c-5.329,0-8.097,3.155-8.097,8.335    c0,5.269,2.768,8.305,7.65,8.305c2.114,0,4.376-0.387,5.835-1.189v-3.453c0-1.697,0.208-2.264,1.756-2.264v-1.042h-6.757v1.042    c1.994,0.061,2.262,0.566,2.262,2.264V37.492z M125.204,26.538c0-1.697,0.268-2.203,2.262-2.263v-1.041h-7.263v1.041    c1.994,0.06,2.262,0.565,2.262,2.263v9.407c0,1.695-0.268,2.202-2.262,2.262v1.012h7.263v-1.012    c-1.994-0.06-2.262-0.566-2.262-2.262V26.538z M101.508,39.219h12.443v-4.852h-1.34c-0.238,3.006-0.803,3.453-3.095,3.453h-3.007    v-6.104h1.161c1.846,0,2.054,0.209,2.173,1.816h1.221v-4.941h-1.221c-0.119,1.697-0.357,1.816-2.203,1.816h-1.131v-5.806h3.096    c1.726,0,2.113,0.269,2.858,2.799h1.25l-0.298-4.167h-11.907v1.041c1.994,0.06,2.262,0.565,2.262,2.263v9.407    c0,1.695-0.268,2.202-2.262,2.262V39.219z"
         id="path7"
         style="fill:#000000" /></g><g
       id="g9"
       style="fill:#000000"><path
         fill="#FFFFFF"
         d="M292.557,18.067H305v-4.852h-1.34c-0.238,3.007-0.803,3.453-3.096,3.453h-3.007v-6.102h1.161    c1.846,0,2.055,0.208,2.174,1.816h1.22V7.44h-1.22c-0.119,1.697-0.357,1.816-2.203,1.816h-1.132V3.452h3.097    c1.726,0,2.113,0.268,2.856,2.799h1.251l-0.298-4.168h-11.907v1.042c1.994,0.059,2.263,0.565,2.263,2.262v9.407    c0,1.697-0.269,2.203-2.263,2.262V18.067z M284.043,5.387c0-1.697,0.269-2.203,2.263-2.262V2.083h-7.264v1.042    c1.995,0.059,2.263,0.565,2.263,2.262v3.721h-7.145V5.387c0-1.697,0.268-2.203,2.263-2.262V2.083h-7.264v1.042    c1.995,0.059,2.263,0.565,2.263,2.262v9.407c0,1.697-0.268,2.203-2.263,2.262v1.012h7.264v-1.012    c-1.995-0.059-2.263-0.565-2.263-2.262v-4.346h7.145v4.346c0,1.697-0.268,2.203-2.263,2.262v1.012h7.264v-1.012    c-1.994-0.059-2.263-0.565-2.263-2.262V5.387z M252.579,9.941c0-4.168,1.28-6.817,4.584-6.817c2.531,0,3.424,1.131,3.781,3.274    h1.875V3.064c-0.982-0.595-2.738-1.309-5.299-1.309c-5.328,0-7.858,3.274-7.858,8.454c0,5.179,2.619,8.216,7.948,8.216    c2.56,0,4.315-0.715,5.299-1.31v-3.334h-1.876c-0.357,2.143-1.25,3.274-3.78,3.274C253.948,17.056,252.579,14.108,252.579,9.941     M236.981,18.426c3.78,0,6.132-1.846,6.132-5.091c0-2.322-1.578-3.81-4.405-4.524l-1.906-0.477    c-1.964-0.476-2.529-1.19-2.529-2.619c0-1.638,1.101-2.62,3.007-2.62c1.845,0,2.768,0.982,3.065,2.709h1.965V2.887    c-0.774-0.387-2.321-1.131-4.853-1.131c-3.096,0-5.656,1.607-5.656,4.643c0,2.59,1.697,3.87,4.108,4.436l1.905,0.446    c1.846,0.447,2.828,1.072,2.828,2.858c0,2.084-1.607,3.007-3.513,3.007c-2.352,0-3.245-1.012-3.453-3.215h-2.024v3.125    C232.426,17.562,234.004,18.426,236.981,18.426 M222.99,5.387c0-1.697,0.268-2.203,2.263-2.262V2.083h-7.264v1.042    c1.995,0.059,2.263,0.565,2.263,2.262v9.407c0,1.697-0.268,2.203-2.263,2.262v1.012h7.264v-1.012    c-1.995-0.059-2.263-0.565-2.263-2.262V5.387z M204.117,14.793c0,1.697-0.268,2.203-2.262,2.262v1.012h7.263v-1.012    c-1.994-0.059-2.262-0.565-2.262-2.262V3.452h1.637c1.667,0,2.173,0.774,2.65,3.305h1.339l-0.238-4.674h-13.931v4.674h1.339    c0.237-2.441,0.596-3.305,2.59-3.305h1.875V14.793z M180.363,18.067h12.442v-4.852h-1.34c-0.237,3.007-0.803,3.453-3.095,3.453    h-3.007v-6.102h1.161c1.846,0,2.054,0.208,2.173,1.816h1.221V7.44h-1.221c-0.119,1.697-0.357,1.816-2.203,1.816h-1.131V3.452    h3.096c1.727,0,2.113,0.268,2.858,2.799h1.25l-0.298-4.168h-11.907v1.042c1.994,0.059,2.262,0.565,2.262,2.262v9.407    c0,1.697-0.268,2.203-2.262,2.262V18.067z M171.85,5.387c0-1.697,0.268-2.203,2.263-2.262V2.083h-7.264v1.042    c1.994,0.059,2.263,0.565,2.263,2.262v3.721h-7.145V5.387c0-1.697,0.269-2.203,2.263-2.262V2.083h-7.264v1.042    c1.994,0.059,2.263,0.565,2.263,2.262v9.407c0,1.697-0.269,2.203-2.263,2.262v1.012h7.264v-1.012    c-1.994-0.059-2.263-0.565-2.263-2.262v-4.346h7.145v4.346c0,1.697-0.269,2.203-2.263,2.262v1.012h7.264v-1.012    c-1.995-0.059-2.263-0.565-2.263-2.262V5.387z M143.094,14.793c0,1.697-0.268,2.203-2.263,2.262v1.012h7.264v-1.012    c-1.995-0.059-2.263-0.565-2.263-2.262V3.452h1.638c1.667,0,2.173,0.774,2.649,3.305h1.34l-0.239-4.674h-13.931v4.674h1.34    c0.238-2.441,0.595-3.305,2.589-3.305h1.876V14.793z M125.65,18.426c3.781,0,6.132-1.846,6.132-5.091    c0-2.322-1.577-3.81-4.405-4.524l-1.906-0.477c-1.964-0.476-2.53-1.19-2.53-2.619c0-1.638,1.102-2.62,3.007-2.62    c1.845,0,2.768,0.982,3.066,2.709h1.965V2.887c-0.774-0.387-2.322-1.131-4.853-1.131c-3.095,0-5.656,1.607-5.656,4.643    c0,2.59,1.697,3.87,4.108,4.436l1.906,0.446c1.845,0.447,2.828,1.072,2.828,2.858c0,2.084-1.608,3.007-3.513,3.007    c-2.352,0-3.245-1.012-3.453-3.215h-2.024v3.125C121.096,17.562,122.673,18.426,125.65,18.426 M103.89,3.393h0.119    c-0.059,0.297-0.268,1.667-0.268,3.542v4.168h-4.197L103.89,3.393z M113.386,2.083H99.961v1.042    c1.875,0.089,1.935,0.685,1.25,1.905l-5.835,10.3c-0.803,1.429-1.161,1.667-2.351,1.816v0.922h5.388v-0.922    c-1.251-0.03-1.638-0.298-1.638-0.715c0-0.268,0.149-0.625,0.387-1.042l1.638-2.917h4.941v2.322c0,1.697-0.268,2.203-2.262,2.262    v1.012h12.443v-4.852h-1.34c-0.238,3.007-0.803,3.453-3.096,3.453h-3.006v-6.102h1.161c1.845,0,2.054,0.208,2.173,1.816h1.22V7.44    h-1.22c-0.119,1.697-0.357,1.816-2.203,1.816h-1.131V3.452h3.096c1.726,0,2.113,0.268,2.857,2.799h1.251L113.386,2.083z"
         id="path11"
         style="fill:#000000" /></g><g
       id="g13"
       style="fill:#000000"><path
         fill="#FFFFFF"
         d="M20.349,41.001C9.129,41.001,0,31.872,0,20.651C0,9.43,9.129,0.301,20.349,0.301    c11.221,0,20.349,9.129,20.349,20.35C40.698,31.872,31.57,41.001,20.349,41.001z M20.349,2.767    c-9.86,0-17.883,8.023-17.883,17.884s8.022,17.883,17.883,17.883c9.861,0,17.883-8.021,17.883-17.883S30.21,2.767,20.349,2.767z"
         id="path15"
         style="fill:#000000" /></g><g
       id="g17"
       style="fill:#000000"><path
         fill="#FFFFFF"
         d="M59.206,41.001c-11.22,0-20.349-9.129-20.349-20.35c0-11.221,9.128-20.35,20.349-20.35    c11.221,0,20.349,9.129,20.349,20.35C79.555,31.872,70.427,41.001,59.206,41.001z M59.206,2.767    c-9.86,0-17.883,8.023-17.883,17.884s8.022,17.883,17.883,17.883c9.861,0,17.883-8.021,17.883-17.883S69.067,2.767,59.206,2.767z"
         id="path19"
         style="fill:#000000" /></g><g
       id="g21"
       style="fill:#000000"><path
         fill="#FFFFFF"
         d="M20.661,21.572c-0.681,0-1.233-0.552-1.233-1.233V4.507c0-0.681,0.552-1.233,1.233-1.233    s1.233,0.552,1.233,1.233v15.832C21.894,21.02,21.342,21.572,20.661,21.572z"
         id="path23"
         style="fill:#000000" /></g></g><g
     id="g25"
     style="fill:#000000"><path
       fill="#FFFFFF"
       d="M70.489,32.901c-0.315,0-0.631-0.121-0.872-0.361L58.605,21.528c-0.481-0.482-0.481-1.262,0-1.744   c0.481-0.481,1.262-0.481,1.744,0l11.012,11.012c0.481,0.481,0.481,1.263,0,1.744C71.121,32.78,70.805,32.901,70.489,32.901z"
       id="path27"
       style="fill:#000000" /></g></svg>