<?xml version="1.0" encoding="UTF-8" standalone="no"?>
<svg
   xmlns:dc="http://purl.org/dc/elements/1.1/"
   xmlns:cc="http://creativecommons.org/ns#"
   xmlns:rdf="http://www.w3.org/1999/02/22-rdf-syntax-ns#"
   xmlns:svg="http://www.w3.org/2000/svg"
   xmlns="http://www.w3.org/2000/svg"
   xmlns:sodipodi="http://sodipodi.sourceforge.net/DTD/sodipodi-0.dtd"
   xmlns:inkscape="http://www.inkscape.org/namespaces/inkscape"
   version="1.2"
   id="Ebene_1"
   x="0px"
   y="0px"
   width="140"
   height="19"
   viewBox="0 0 140 19"
   overflow="inherit"
   xml:space="preserve"
   inkscape:version="0.48.4 r9939"
   sodipodi:docname="eigenzeiten.svg"
   style="overflow:inherit"><metadata
     id="metadata33"><rdf:RDF><cc:Work
         rdf:about=""><dc:format>image/svg+xml</dc:format><dc:type
           rdf:resource="http://purl.org/dc/dcmitype/StillImage" /><dc:title /></cc:Work></rdf:RDF></metadata><defs
     id="defs31" /><sodipodi:namedview
     pagecolor="#ffffff"
     bordercolor="#666666"
     borderopacity="1"
     objecttolerance="10"
     gridtolerance="10"
     guidetolerance="10"
     inkscape:pageopacity="0"
     inkscape:pageshadow="2"
     inkscape:window-width="1551"
     inkscape:window-height="876"
     id="namedview29"
     showgrid="false"
     inkscape:zoom="5.9536073"
     inkscape:cx="96.79121"
     inkscape:cy="7.9262788"
     inkscape:window-x="49"
     inkscape:window-y="24"
     inkscape:window-maximized="1"
     inkscape:current-layer="Ebene_1" /><g
     id="g2994"
     transform="matrix(0.45524736,0,0,0.45524736,0.50389619,0.17522984)"><g
       style="fill:#000000"
       id="g3"><g
         style="fill:#000000"
         id="g5"><path
           style="fill:#000000"
           id="path7"
           d="m 286.216,35.945 c 0,1.695 -0.269,2.202 -2.263,2.262 v 1.012 h 6.431 v -1.012 c -1.995,-0.06 -2.263,-0.566 -2.263,-2.262 v -4.229 c 0,-2.648 -0.209,-4.375 -0.357,-5.477 h 0.148 c 0.298,0.744 0.834,2.054 2.411,4.346 l 5.895,8.633 h 2.024 v -12.68 c 0,-1.697 0.269,-2.203 2.262,-2.263 v -1.041 h -6.43 v 1.041 c 1.995,0.06 2.262,0.565 2.262,2.263 v 3.065 c 0,3.603 0.299,5.627 0.358,6.162 h -0.179 c -0.269,-0.685 -0.744,-1.815 -1.875,-3.542 l -5.954,-8.989 h -4.733 v 1.041 c 1.994,0.06 2.263,0.565 2.263,2.263 v 9.407 z m -20.956,3.274 h 12.442 v -4.852 h -1.339 c -0.239,3.006 -0.804,3.453 -3.096,3.453 h -3.007 v -6.104 h 1.161 c 1.846,0 2.054,0.209 2.173,1.816 h 1.221 v -4.941 h -1.221 c -0.119,1.697 -0.357,1.816 -2.203,1.816 h -1.131 v -5.806 h 3.096 c 1.727,0 2.114,0.269 2.858,2.799 h 1.25 l -0.299,-4.167 H 265.26 v 1.041 c 1.994,0.06 2.262,0.565 2.262,2.263 v 9.407 c 0,1.695 -0.268,2.202 -2.262,2.262 v 1.013 z m -13.872,-3.274 c 0,1.695 -0.269,2.202 -2.263,2.262 v 1.012 h 7.264 v -1.012 c -1.994,-0.06 -2.263,-0.566 -2.263,-2.262 V 24.603 h 1.638 c 1.667,0 2.173,0.774 2.649,3.305 h 1.339 l -0.237,-4.673 h -13.932 v 4.673 h 1.34 c 0.237,-2.441 0.595,-3.305 2.59,-3.305 h 1.875 v 11.342 z m -13.575,-9.407 c 0,-1.697 0.268,-2.203 2.263,-2.263 v -1.041 h -7.264 v 1.041 c 1.995,0.06 2.263,0.565 2.263,2.263 v 9.407 c 0,1.695 -0.268,2.202 -2.263,2.262 v 1.012 h 7.264 v -1.012 c -1.995,-0.06 -2.263,-0.566 -2.263,-2.262 v -9.407 z m -23.695,12.681 h 12.443 v -4.852 h -1.339 c -0.238,3.006 -0.805,3.453 -3.097,3.453 h -3.007 v -6.104 h 1.161 c 1.846,0 2.054,0.209 2.173,1.816 h 1.222 v -4.941 h -1.222 c -0.119,1.697 -0.356,1.816 -2.202,1.816 h -1.132 v -5.806 h 3.097 c 1.727,0 2.113,0.269 2.857,2.799 h 1.25 l -0.297,-4.167 h -11.908 v 1.041 c 1.995,0.06 2.264,0.565 2.264,2.263 v 9.407 c 0,1.695 -0.269,2.202 -2.264,2.262 v 1.013 z m -6.251,-4.555 h -1.279 c -0.565,2.561 -0.863,3.126 -3.661,3.126 h -4.376 l 9.287,-12.979 v -1.576 h -11.521 l -0.327,4.315 h 1.28 c 0.327,-2.232 1.101,-2.917 3.125,-2.917 h 4.555 l -9.288,13.127 v 1.459 h 11.818 l 0.387,-4.555 z m -32,1.281 c 0,1.695 -0.268,2.202 -2.262,2.262 v 1.012 h 6.43 v -1.012 c -1.995,-0.06 -2.263,-0.566 -2.263,-2.262 v -4.229 c 0,-2.648 -0.208,-4.375 -0.357,-5.477 h 0.149 c 0.297,0.744 0.833,2.054 2.411,4.346 l 5.894,8.633 h 2.024 v -12.68 c 0,-1.697 0.268,-2.203 2.263,-2.263 v -1.041 h -6.43 v 1.041 c 1.994,0.06 2.262,0.565 2.262,2.263 v 3.065 c 0,3.603 0.298,5.627 0.357,6.162 h -0.179 c -0.268,-0.685 -0.743,-1.815 -1.876,-3.542 l -5.952,-8.989 h -4.733 v 1.041 c 1.994,0.06 2.262,0.565 2.262,2.263 v 9.407 z m -20.956,3.274 h 12.443 v -4.852 h -1.34 c -0.238,3.006 -0.805,3.453 -3.097,3.453 h -3.006 v -6.104 h 1.161 c 1.845,0 2.054,0.209 2.173,1.816 h 1.221 v -4.941 h -1.221 c -0.119,1.697 -0.356,1.816 -2.203,1.816 h -1.131 v -5.806 h 3.097 c 1.726,0 2.112,0.269 2.856,2.799 h 1.251 l -0.298,-4.167 H 154.91 v 1.041 c 1.994,0.06 2.263,0.565 2.263,2.263 v 9.407 c 0,1.695 -0.269,2.202 -2.263,2.262 v 1.013 z M 144.76,37.492 c -0.684,0.447 -1.458,0.715 -2.768,0.715 -4.049,0 -5.061,-2.947 -5.061,-7.234 0,-4.167 1.518,-6.697 4.823,-6.697 2.53,0 3.423,1.132 3.78,3.274 h 1.876 v -3.334 c -0.983,-0.595 -2.739,-1.31 -5.299,-1.31 -5.329,0 -8.097,3.155 -8.097,8.335 0,5.269 2.768,8.305 7.65,8.305 2.114,0 4.376,-0.387 5.835,-1.189 v -3.453 c 0,-1.697 0.208,-2.264 1.756,-2.264 v -1.042 h -6.757 v 1.042 c 1.994,0.061 2.262,0.566 2.262,2.264 v 2.588 z M 125.204,26.538 c 0,-1.697 0.268,-2.203 2.262,-2.263 v -1.041 h -7.263 v 1.041 c 1.994,0.06 2.262,0.565 2.262,2.263 v 9.407 c 0,1.695 -0.268,2.202 -2.262,2.262 v 1.012 h 7.263 v -1.012 c -1.994,-0.06 -2.262,-0.566 -2.262,-2.262 v -9.407 z m -23.696,12.681 h 12.443 v -4.852 h -1.34 c -0.238,3.006 -0.803,3.453 -3.095,3.453 h -3.007 v -6.104 h 1.161 c 1.846,0 2.054,0.209 2.173,1.816 h 1.221 v -4.941 h -1.221 c -0.119,1.697 -0.357,1.816 -2.203,1.816 h -1.131 v -5.806 h 3.096 c 1.726,0 2.113,0.269 2.858,2.799 h 1.25 l -0.298,-4.167 h -11.907 v 1.041 c 1.994,0.06 2.262,0.565 2.262,2.263 v 9.407 c 0,1.695 -0.268,2.202 -2.262,2.262 v 1.013 z"
           inkscape:connector-curvature="0" /></g><g
         style="fill:#000000"
         id="g9"><path
           style="fill:#000000"
           id="path11"
           d="M 292.557,18.067 H 305 v -4.852 h -1.34 c -0.238,3.007 -0.803,3.453 -3.096,3.453 h -3.007 v -6.102 h 1.161 c 1.846,0 2.055,0.208 2.174,1.816 h 1.22 V 7.44 h -1.22 c -0.119,1.697 -0.357,1.816 -2.203,1.816 h -1.132 V 3.452 h 3.097 c 1.726,0 2.113,0.268 2.856,2.799 h 1.251 l -0.298,-4.168 h -11.907 v 1.042 c 1.994,0.059 2.263,0.565 2.263,2.262 v 9.407 c 0,1.697 -0.269,2.203 -2.263,2.262 v 1.011 z m -8.514,-12.68 c 0,-1.697 0.269,-2.203 2.263,-2.262 V 2.083 h -7.264 v 1.042 c 1.995,0.059 2.263,0.565 2.263,2.262 V 9.108 H 274.16 V 5.387 c 0,-1.697 0.268,-2.203 2.263,-2.262 V 2.083 h -7.264 v 1.042 c 1.995,0.059 2.263,0.565 2.263,2.262 v 9.407 c 0,1.697 -0.268,2.203 -2.263,2.262 v 1.012 h 7.264 v -1.012 c -1.995,-0.059 -2.263,-0.565 -2.263,-2.262 v -4.346 h 7.145 v 4.346 c 0,1.697 -0.268,2.203 -2.263,2.262 v 1.012 h 7.264 v -1.012 c -1.994,-0.059 -2.263,-0.565 -2.263,-2.262 V 5.387 z m -31.464,4.554 c 0,-4.168 1.28,-6.817 4.584,-6.817 2.531,0 3.424,1.131 3.781,3.274 h 1.875 V 3.064 c -0.982,-0.595 -2.738,-1.309 -5.299,-1.309 -5.328,0 -7.858,3.274 -7.858,8.454 0,5.179 2.619,8.216 7.948,8.216 2.56,0 4.315,-0.715 5.299,-1.31 v -3.334 h -1.876 c -0.357,2.143 -1.25,3.274 -3.78,3.274 -3.305,0.001 -4.674,-2.947 -4.674,-7.114 m -15.598,8.485 c 3.78,0 6.132,-1.846 6.132,-5.091 0,-2.322 -1.578,-3.81 -4.405,-4.524 l -1.906,-0.477 c -1.964,-0.476 -2.529,-1.19 -2.529,-2.619 0,-1.638 1.101,-2.62 3.007,-2.62 1.845,0 2.768,0.982 3.065,2.709 h 1.965 V 2.887 c -0.774,-0.387 -2.321,-1.131 -4.853,-1.131 -3.096,0 -5.656,1.607 -5.656,4.643 0,2.59 1.697,3.87 4.108,4.436 l 1.905,0.446 c 1.846,0.447 2.828,1.072 2.828,2.858 0,2.084 -1.607,3.007 -3.513,3.007 -2.352,0 -3.245,-1.012 -3.453,-3.215 h -2.024 v 3.125 c 0.774,0.506 2.352,1.37 5.329,1.37 M 222.99,5.387 c 0,-1.697 0.268,-2.203 2.263,-2.262 V 2.083 h -7.264 v 1.042 c 1.995,0.059 2.263,0.565 2.263,2.262 v 9.407 c 0,1.697 -0.268,2.203 -2.263,2.262 v 1.012 h 7.264 v -1.012 c -1.995,-0.059 -2.263,-0.565 -2.263,-2.262 V 5.387 z m -18.873,9.406 c 0,1.697 -0.268,2.203 -2.262,2.262 v 1.012 h 7.263 v -1.012 c -1.994,-0.059 -2.262,-0.565 -2.262,-2.262 V 3.452 h 1.637 c 1.667,0 2.173,0.774 2.65,3.305 h 1.339 l -0.238,-4.674 h -13.931 v 4.674 h 1.339 c 0.237,-2.441 0.596,-3.305 2.59,-3.305 h 1.875 v 11.341 z m -23.754,3.274 h 12.442 v -4.852 h -1.34 c -0.237,3.007 -0.803,3.453 -3.095,3.453 h -3.007 v -6.102 h 1.161 c 1.846,0 2.054,0.208 2.173,1.816 h 1.221 V 7.44 h -1.221 c -0.119,1.697 -0.357,1.816 -2.203,1.816 h -1.131 V 3.452 h 3.096 c 1.727,0 2.113,0.268 2.858,2.799 h 1.25 l -0.298,-4.168 h -11.907 v 1.042 c 1.994,0.059 2.262,0.565 2.262,2.262 v 9.407 c 0,1.697 -0.268,2.203 -2.262,2.262 v 1.011 z M 171.85,5.387 c 0,-1.697 0.268,-2.203 2.263,-2.262 V 2.083 h -7.264 v 1.042 c 1.994,0.059 2.263,0.565 2.263,2.262 v 3.721 h -7.145 V 5.387 c 0,-1.697 0.269,-2.203 2.263,-2.262 V 2.083 h -7.264 v 1.042 c 1.994,0.059 2.263,0.565 2.263,2.262 v 9.407 c 0,1.697 -0.269,2.203 -2.263,2.262 v 1.012 h 7.264 v -1.012 c -1.994,-0.059 -2.263,-0.565 -2.263,-2.262 v -4.346 h 7.145 v 4.346 c 0,1.697 -0.269,2.203 -2.263,2.262 v 1.012 h 7.264 v -1.012 c -1.995,-0.059 -2.263,-0.565 -2.263,-2.262 V 5.387 z m -28.756,9.406 c 0,1.697 -0.268,2.203 -2.263,2.262 v 1.012 h 7.264 V 17.055 C 146.1,16.996 145.832,16.49 145.832,14.793 V 3.452 h 1.638 c 1.667,0 2.173,0.774 2.649,3.305 h 1.34 L 151.22,2.083 h -13.931 v 4.674 h 1.34 c 0.238,-2.441 0.595,-3.305 2.589,-3.305 h 1.876 v 11.341 z m -17.444,3.633 c 3.781,0 6.132,-1.846 6.132,-5.091 0,-2.322 -1.577,-3.81 -4.405,-4.524 l -1.906,-0.477 c -1.964,-0.476 -2.53,-1.19 -2.53,-2.619 0,-1.638 1.102,-2.62 3.007,-2.62 1.845,0 2.768,0.982 3.066,2.709 h 1.965 V 2.887 c -0.774,-0.387 -2.322,-1.131 -4.853,-1.131 -3.095,0 -5.656,1.607 -5.656,4.643 0,2.59 1.697,3.87 4.108,4.436 l 1.906,0.446 c 1.845,0.447 2.828,1.072 2.828,2.858 0,2.084 -1.608,3.007 -3.513,3.007 -2.352,0 -3.245,-1.012 -3.453,-3.215 h -2.024 v 3.125 c 0.774,0.506 2.351,1.37 5.328,1.37 M 103.89,3.393 h 0.119 c -0.059,0.297 -0.268,1.667 -0.268,3.542 v 4.168 h -4.197 l 4.346,-7.71 z m 9.496,-1.31 H 99.961 v 1.042 c 1.875,0.089 1.935,0.685 1.25,1.905 l -5.835,10.3 c -0.803,1.429 -1.161,1.667 -2.351,1.816 v 0.922 h 5.388 v -0.922 c -1.251,-0.03 -1.638,-0.298 -1.638,-0.715 0,-0.268 0.149,-0.625 0.387,-1.042 L 98.8,12.472 h 4.941 v 2.322 c 0,1.697 -0.268,2.203 -2.262,2.262 v 1.012 h 12.443 v -4.852 h -1.34 c -0.238,3.007 -0.803,3.453 -3.096,3.453 h -3.006 v -6.102 h 1.161 c 1.845,0 2.054,0.208 2.173,1.816 h 1.22 V 7.44 h -1.22 c -0.119,1.697 -0.357,1.816 -2.203,1.816 H 106.48 V 3.452 h 3.096 c 1.726,0 2.113,0.268 2.857,2.799 h 1.251 l -0.298,-4.168 z"
           inkscape:connector-curvature="0" /></g><g
         style="fill:#000000"
         id="g13"><path
           style="fill:#000000"
           id="path15"
           d="M 20.349,41.001 C 9.129,41.001 0,31.872 0,20.651 0,9.43 9.129,0.301 20.349,0.301 c 11.221,0 20.349,9.129 20.349,20.35 0,11.221 -9.128,20.35 -20.349,20.35 z m 0,-38.234 c -9.86,0 -17.883,8.023 -17.883,17.884 0,9.861 8.022,17.883 17.883,17.883 9.861,0 17.883,-8.021 17.883,-17.883 0,-9.862 -8.022,-17.884 -17.883,-17.884 z"
           inkscape:connector-curvature="0" /></g><g
         style="fill:#000000"
         id="g17"><path
           style="fill:#000000"
           id="path19"
           d="m 59.206,41.001 c -11.22,0 -20.349,-9.129 -20.349,-20.35 0,-11.221 9.128,-20.35 20.349,-20.35 11.221,0 20.349,9.129 20.349,20.35 0,11.221 -9.128,20.35 -20.349,20.35 z m 0,-38.234 c -9.86,0 -17.883,8.023 -17.883,17.884 0,9.861 8.022,17.883 17.883,17.883 9.861,0 17.883,-8.021 17.883,-17.883 0,-9.862 -8.022,-17.884 -17.883,-17.884 z"
           inkscape:connector-curvature="0" /></g><g
         style="fill:#000000"
         id="g21"><path
           style="fill:#000000"
           id="path23"
           d="m 20.661,21.572 c -0.681,0 -1.233,-0.552 -1.233,-1.233 V 4.507 c 0,-0.681 0.552,-1.233 1.233,-1.233 0.681,0 1.233,0.552 1.233,1.233 v 15.832 c 0,0.681 -0.552,1.233 -1.233,1.233 z"
           inkscape:connector-curvature="0" /></g></g><g
       style="fill:#000000"
       id="g25"><path
         style="fill:#000000"
         id="path27"
         d="m 70.489,32.901 c -0.315,0 -0.631,-0.121 -0.872,-0.361 L 58.605,21.528 c -0.481,-0.482 -0.481,-1.262 0,-1.744 0.481,-0.481 1.262,-0.481 1.744,0 l 11.012,11.012 c 0.481,0.481 0.481,1.263 0,1.744 -0.24,0.24 -0.556,0.361 -0.872,0.361 z"
         inkscape:connector-curvature="0" /></g></g></svg>