<?xml version="1.0" encoding="UTF-8" standalone="no"?>
<!-- Created with Inkscape (http://www.inkscape.org/) -->

<svg
   xmlns:dc="http://purl.org/dc/elements/1.1/"
   xmlns:cc="http://creativecommons.org/ns#"
   xmlns:rdf="http://www.w3.org/1999/02/22-rdf-syntax-ns#"
   xmlns:svg="http://www.w3.org/2000/svg"
   xmlns="http://www.w3.org/2000/svg"
   xmlns:sodipodi="http://sodipodi.sourceforge.net/DTD/sodipodi-0.dtd"
   xmlns:inkscape="http://www.inkscape.org/namespaces/inkscape"
   width="367.01846"
   height="66.963722"
   id="svg2"
   version="1.1"
   inkscape:version="0.48.4 r9939"
   sodipodi:docname="poptraces_intro.svg">
  <defs
     id="defs4" />
  <sodipodi:namedview
     id="base"
     pagecolor="#ffffff"
     bordercolor="#666666"
     borderopacity="1.0"
     inkscape:pageopacity="0.0"
     inkscape:pageshadow="2"
     inkscape:zoom="2.8"
     inkscape:cx="282.27526"
     inkscape:cy="-59.591965"
     inkscape:document-units="px"
     inkscape:current-layer="layer1"
     showgrid="false"
     showguides="true"
     inkscape:guide-bbox="true"
     inkscape:window-width="2479"
     inkscape:window-height="1410"
     inkscape:window-x="81"
     inkscape:window-y="30"
     inkscape:window-maximized="1"
     fit-margin-top="4"
     fit-margin-left="4"
     fit-margin-right="4"
     fit-margin-bottom="4">
    <sodipodi:guide
       orientation="0,1"
       position="44.215561,-19.931039"
       id="guide2998" />
  </sodipodi:namedview>
  <metadata
     id="metadata7">
    <rdf:RDF>
      <cc:Work
         rdf:about="">
        <dc:format>image/svg+xml</dc:format>
        <dc:type
           rdf:resource="http://purl.org/dc/dcmitype/StillImage" />
        <dc:title></dc:title>
      </cc:Work>
    </rdf:RDF>
  </metadata>
  <g
     inkscape:label="Ebene 1"
     inkscape:groupmode="layer"
     id="layer1"
     transform="translate(-132.5036,-320.64742)">
    <g
       id="g3012"
       transform="matrix(2.9964272,0,0,2.9964272,-267.16876,-837.55172)">
      <path
         inkscape:connector-curvature="0"
         id="path118"
         d="m 139.64285,396.84992 -2.97177,-3.38453 c 0,0 2.72413,-2.64158 4.29257,-4.21002 1.81609,-1.8161 4.95297,-1.73354 6.10866,-0.33021 0.99059,1.15571 0.74295,3.21944 -1.07314,4.45768 -2.64158,1.81609 -3.46708,1.15569 -6.35632,3.46708 z m 3.13689,0.90804 c -2.55903,1.89865 -2.80669,3.21943 -5.36572,4.87042 l 2.14629,3.87984 c 2.47648,-1.3208 3.38452,-1.651 5.36571,-2.64159 2.39393,-1.07315 3.30198,-4.04492 2.39393,-5.69592 -0.74294,-1.23824 -2.80667,-1.73353 -4.54021,-0.41275 z m -4.29257,-0.0826 -2.72414,-3.13688 c 0,0 -1.89863,1.89865 -0.57785,3.38454 1.40335,1.23823 3.30199,-0.24766 3.30199,-0.24766 z m -3.54963,8.75025 c 0.90804,1.73354 3.30198,0.6604 3.30198,0.6604 l -2.06374,-3.63218 c 0.0825,0 -1.98119,1.23824 -1.23824,2.97178 z"
         style="fill:#000000" />
      <path
         d="m 150.18984,391.91982 0,15.61982 1.5641,0 0,-6.04502 c 1.01454,1.47955 2.57864,2.2616 4.50205,2.2616 3.44524,0 6.12956,-2.64206 6.12956,-6.02388 0,-3.44523 -2.64205,-6.08729 -6.08728,-6.08729 -1.96569,0 -3.57206,0.80319 -4.54433,2.2616 l 0,-1.98683 -1.5641,0 m 6.04502,1.16251 c 2.59977,0 4.56546,1.98682 4.56546,4.65001 0,2.59978 -1.96569,4.5866 -4.54433,4.5866 -2.64205,0 -4.60774,-2.00796 -4.60774,-4.67115 0,-2.5575 2.0291,-4.56546 4.58661,-4.56546"
         style="font-size:21.1364193px;font-style:normal;font-variant:normal;font-stretch:normal;line-height:125%;letter-spacing:0px;word-spacing:0px;fill:#000000;fill-opacity:1;stroke:none;font-family:URW Gothic L;-inkscape-font-specification:URW Gothic L Book"
         id="path3012"
         inkscape:connector-curvature="0" />
      <path
         d="m 170.21957,391.64505 c -3.4241,0 -6.06615,2.59978 -6.06615,5.98161 0,3.55091 2.59978,6.12956 6.19297,6.12956 3.38182,0 5.87592,-2.55751 5.87592,-6.02388 0,-3.52978 -2.53637,-6.08729 -6.00274,-6.08729 m 0,1.43728 c 2.53637,0 4.41751,1.98682 4.41751,4.67115 0,2.64205 -1.81773,4.56546 -4.33296,4.56546 -2.66319,0 -4.56547,-1.94455 -4.56547,-4.65001 0,-2.62091 1.92342,-4.5866 4.48092,-4.5866"
         style="font-size:21.1364193px;font-style:normal;font-variant:normal;font-stretch:normal;line-height:125%;letter-spacing:0px;word-spacing:0px;fill:#000000;fill-opacity:1;stroke:none;font-family:URW Gothic L;-inkscape-font-specification:URW Gothic L Book"
         id="path3014"
         inkscape:connector-curvature="0" />
      <path
         d="m 178.42677,391.91982 0,15.61982 1.5641,0 0,-6.04502 c 1.01455,1.47955 2.57865,2.2616 4.50206,2.2616 3.44523,0 6.12956,-2.64206 6.12956,-6.02388 0,-3.44523 -2.64206,-6.08729 -6.08729,-6.08729 -1.96568,0 -3.57206,0.80319 -4.54433,2.2616 l 0,-1.98683 -1.5641,0 m 6.04502,1.16251 c 2.59978,0 4.56547,1.98682 4.56547,4.65001 0,2.59978 -1.96569,4.5866 -4.54433,4.5866 -2.64205,0 -4.60774,-2.00796 -4.60774,-4.67115 0,-2.5575 2.0291,-4.56546 4.5866,-4.56546"
         style="font-size:21.1364193px;font-style:normal;font-variant:normal;font-stretch:normal;line-height:125%;letter-spacing:0px;word-spacing:0px;fill:#000000;fill-opacity:1;stroke:none;font-family:URW Gothic L;-inkscape-font-specification:URW Gothic L Book"
         id="path3016"
         inkscape:connector-curvature="0" />
      <path
         d="m 194.25036,403.48145 1.56409,0 0,-10.14549 2.59978,0 0,-1.41614 -2.59978,0 0,-4.05819 -1.56409,0 0,4.05819 -2.4941,0 0,1.41614 2.4941,0 0,10.14549"
         style="font-size:21.1364193px;font-style:normal;font-variant:normal;font-stretch:normal;line-height:125%;letter-spacing:0px;word-spacing:0px;fill:#000000;fill-opacity:1;stroke:none;font-family:URW Gothic L;-inkscape-font-specification:URW Gothic L Book"
         id="path3018"
         inkscape:connector-curvature="0" />
      <path
         d="m 200.0173,403.48145 1.56409,0 0,-6.74252 c 0,-2.15592 1.0991,-3.33956 3.27615,-3.55092 l 0,-1.54296 c -1.66978,0.0845 -2.66319,0.65523 -3.27615,1.92341 l 0,-1.64864 -1.56409,0 0,11.56163"
         style="font-size:21.1364193px;font-style:normal;font-variant:normal;font-stretch:normal;line-height:125%;letter-spacing:0px;word-spacing:0px;fill:#000000;fill-opacity:1;stroke:none;font-family:URW Gothic L;-inkscape-font-specification:URW Gothic L Book"
         id="path3020"
         inkscape:connector-curvature="0" />
      <path
         d="m 218.14772,391.91982 -1.56409,0 0,2.05024 c -1.14137,-1.60637 -2.55751,-2.32501 -4.56547,-2.32501 -3.46637,0 -6.08729,2.62092 -6.08729,6.08729 0,3.44523 2.64206,6.02388 6.19297,6.02388 1.96569,0 3.23388,-0.65523 4.45979,-2.30387 l 0,2.0291 1.56409,0 0,-11.56163 m -6.08728,1.16251 c 2.53636,0 4.52319,1.98682 4.52319,4.56546 0,2.62092 -1.94455,4.67115 -4.43865,4.67115 -2.62091,0 -4.62887,-2.05023 -4.62887,-4.69228 0,-2.51523 2.02909,-4.54433 4.54433,-4.54433"
         style="font-size:21.1364193px;font-style:normal;font-variant:normal;font-stretch:normal;line-height:125%;letter-spacing:0px;word-spacing:0px;fill:#000000;fill-opacity:1;stroke:none;font-family:URW Gothic L;-inkscape-font-specification:URW Gothic L Book"
         id="path3022"
         inkscape:connector-curvature="0" />
      <path
         d="m 230.56735,400.07848 c -1.20477,1.60637 -2.32501,2.24046 -3.95251,2.24046 -2.59978,0 -4.65001,-2.05023 -4.65001,-4.60774 0,-2.59977 2.00796,-4.62887 4.5866,-4.62887 1.71205,0 3.12819,0.82432 4.01592,2.34614 l 1.75432,0 c -0.93,-2.325 -3.14933,-3.78342 -5.7491,-3.78342 -3.46637,0 -6.19297,2.66319 -6.19297,6.02388 0,3.44523 2.74773,6.08729 6.29865,6.08729 1.43727,0 2.76887,-0.465 3.84683,-1.31046 0.73977,-0.59182 1.18364,-1.1625 1.81773,-2.36728 l -1.77546,0"
         style="font-size:21.1364193px;font-style:normal;font-variant:normal;font-stretch:normal;line-height:125%;letter-spacing:0px;word-spacing:0px;fill:#000000;fill-opacity:1;stroke:none;font-family:URW Gothic L;-inkscape-font-specification:URW Gothic L Book"
         id="path3024"
         inkscape:connector-curvature="0" />
      <path
         d="m 246.07059,398.21848 c 0,-1.58523 -0.21137,-2.55751 -0.78205,-3.57206 -1.03568,-1.83886 -3.04365,-3.00137 -5.24183,-3.00137 -3.36069,0 -6.00275,2.64206 -6.00275,6.00274 0,3.4241 2.68433,6.10843 6.10843,6.10843 1.47955,0 2.87455,-0.54955 3.93137,-1.54296 0.82432,-0.78205 1.37387,-1.58523 1.69092,-2.53637 l -1.62751,0 c -0.65523,1.58523 -2.28273,2.64205 -4.03705,2.64205 -2.36728,0 -4.37524,-1.81773 -4.50206,-4.10046 l 10.46253,0 m -10.42026,-1.41614 c 0.42273,-2.21932 2.17706,-3.72001 4.37524,-3.72001 2.24046,0 3.95251,1.41614 4.48092,3.72001 l -8.85616,0"
         style="font-size:21.1364193px;font-style:normal;font-variant:normal;font-stretch:normal;line-height:125%;letter-spacing:0px;word-spacing:0px;fill:#000000;fill-opacity:1;stroke:none;font-family:URW Gothic L;-inkscape-font-specification:URW Gothic L Book"
         id="path3026"
         inkscape:connector-curvature="0" />
      <path
         d="m 247.28362,400.07848 c 0.0211,2.24046 1.50068,3.67774 3.72001,3.67774 2.07136,0 3.52978,-1.47955 3.52978,-3.59319 0,-1.41614 -0.65523,-2.38842 -2.00796,-2.9591 -1.75432,-0.71864 -1.83887,-0.76091 -2.17705,-0.93 -0.71864,-0.35932 -1.05682,-0.84546 -1.05682,-1.52183 0,-0.93 0.73977,-1.66977 1.66977,-1.66977 1.01455,0 1.60637,0.59182 1.69092,1.69091 l 1.58523,0 c -0.0634,-1.86 -1.39501,-3.12819 -3.25501,-3.12819 -1.88114,0 -3.27615,1.37387 -3.27615,3.25501 0,0.82432 0.29591,1.54296 0.8666,2.07137 0.48613,0.44386 0.50727,0.44386 2.13478,1.12023 0.6975,0.27477 1.20477,0.52841 1.50068,0.71864 0.465,0.31704 0.73978,0.86659 0.73978,1.50068 0,1.1625 -0.82433,2.00796 -1.94455,2.00796 -1.28932,0 -2.09251,-0.82432 -2.17706,-2.24046 l -1.54295,0"
         style="font-size:21.1364193px;font-style:normal;font-variant:normal;font-stretch:normal;line-height:125%;letter-spacing:0px;word-spacing:0px;fill:#000000;fill-opacity:1;stroke:none;font-family:URW Gothic L;-inkscape-font-specification:URW Gothic L Book"
         id="path3028"
         inkscape:connector-curvature="0" />
    </g>
  </g>
</svg>
